<svg version="1.1" id="Layer_1" x="0px" y="0px" width="628" viewBox="0 0 628 150" enable-background="new 0 0 628 400" xml:space="preserve" sodipodi:docname="tiendar (1).svg" inkscape:version="1.1.1 (3bf5ae0d25, 2021-09-20)" height="150"
   xmlns:inkscape="http://www.inkscape.org/namespaces/inkscape"
   xmlns:sodipodi="http://sodipodi.sourceforge.net/DTD/sodipodi-0.dtd"
   xmlns="http://www.w3.org/2000/svg"
   xmlns:svg="http://www.w3.org/2000/svg">
   <defs id="defs185" />
   <sodipodi:namedview id="namedview183" pagecolor="#111111" bordercolor="#666666" borderopacity="1.0" inkscape:pageshadow="2" inkscape:pageopacity="0" inkscape:pagecheckerboard="0" showgrid="false" inkscape:zoom="1.131596" inkscape:cx="232.85695" inkscape:cy="171.43927" inkscape:window-width="1920" inkscape:window-height="1025" inkscape:window-x="0" inkscape:window-y="208" inkscape:window-maximized="1" inkscape:current-layer="Layer_1" showguides="true" inkscape:guide-bbox="true">
      <sodipodi:guide position="396.36143,90.58472" orientation="0,-1" id="guide2253" />
   </sodipodi:namedview>

   <path fill="#A1063E" opacity="1" stroke="none" d="m 146.70791,104.46995 c -20.68468,0.26363 -41.10945,0.36293 -61.975268,0.55914 -4.27211,0.006 -8.11571,-0.31909 -11.93068,-0.11329 -4.02674,0.2172 -6.02526,-1.46515 -7.35389,-5.217708 -7.7824,-21.981 -15.86091,-43.85746 -23.58438,-65.85876 -1.39006,-3.95981 -3.215836,-5.66923 -7.506213,-5.22854 -3.956059,0.40634 -8.026213,0.39428 -11.966798,-0.0852 -1.558266,-0.18962 -2.902255,-2.14007 -4.343807,-3.28877 1.41748,-1.16091 2.775233,-3.22518 4.262996,-3.32357 5.891913,-0.38966 11.82765,-0.0493 17.740852,-0.21009 3.45873,-0.0941 5.19928,1.49494 6.31559,4.61525 7.80816,21.82544 15.82108,43.57834 23.49816,65.44933 1.59114,4.53296 3.67201,6.68012 8.7526,6.04703 4.41154,-0.5497 8.941866,-0.14582 14.308746,-0.16263 16.050822,0.0172 31.213542,-0.0503 46.373602,0.12073 3.04023,0.0342 4.48848,-0.91724 5.5209,-3.7924 3.87666,-10.79571 8.03129,-21.49141 12.05534,-32.23449 1.43982,-3.84386 2.80464,-7.71579 4.2389,-11.67202 -0.84016,-0.26788 -1.26646,-0.52302 -1.69249,-0.52262 -28.88278,0.0273 -57.76551,0.075 -86.648248,0.12113 -2.03358,-0.0861 -4.24644,0.29193 -6.04489,-0.40281 -1.48094,-0.57211 -2.47059,-2.41601 -3.70985,-4.08373 2.22238,-1.21153 4.46371,-2.70567 6.73296,-2.74931 13.18492,-0.25356 26.376426,-0.16603 40.007058,-0.2899 17.3677,-0.004 34.29411,0.0849 51.22048,0.17916 1.59688,0.009 3.21798,-0.12231 4.7854,0.10458 3.35555,0.48577 4.7997,2.34389 3.53859,5.73376 -6.55722,17.62656 -13.10355,35.25734 -19.74895,52.850668 -0.47025,1.245 -1.70664,2.2006 -2.84671,3.4551 z" id="path146" style="fill:#ffffff;stroke-width:0.959609" />
   <path fill="#fbfcfd" opacity="1" stroke="none" d="m 561.91614,90.440862 c 0,5.11167 0,10.223328 0,15.674348 -4.39727,0 -8.10583,0 -12.51611,0 0,-7.916688 0,-15.833828 -0.10632,-24.209528 -0.1063,-13.56247 -0.1063,-26.66639 -0.1063,-39.52955 13.0477,0 25.42511,-0.59573 37.70377,0.24721 6.29523,0.43218 10.0025,6.38715 10.20282,12.76351 0.0835,2.65878 -0.16657,5.33712 0.049,7.98095 0.68268,8.37235 -1.22601,15.2681 -10.46142,18.17954 3.64755,5.84512 7.15933,11.09439 10.23486,16.58789 1.22351,2.185418 1.48138,4.911528 2.16144,7.799618 -1.81531,0.44919 -3.64295,0.29703 -5.40528,0.56842 -4.82956,0.74365 -8.23117,-0.71512 -9.95053,-6.30557 -2.82782,-5.475188 -5.23157,-10.385468 -7.8818,-15.158848 -0.60974,-1.0982 -2.01001,-2.35482 -3.14231,-2.45492 -3.56878,-0.31568 -7.18313,-0.11636 -11.16958,-0.11636 0.14886,3.06106 0.26831,5.51718 0.38775,7.97329 m -0.38049,-33.21071 c 0,4.9291 0,9.85817 0,15.06939 5.60434,0 10.41504,0.0366 15.22498,-0.009 6.25143,-0.0594 8.33395,-2.15912 8.39627,-8.36172 0.0167,-1.66254 -0.0337,-3.32615 0.003,-4.98798 0.0993,-4.46661 -2.23138,-6.98331 -6.51074,-7.19856 -5.45059,-0.27413 -10.92539,-0.0664 -16.75995,-0.0664 -0.13184,1.72893 -0.2424,3.17918 -0.35376,5.55441 z" id="path148" />
   <path fill="#fbfdfe" opacity="1" stroke="none" d="m 488.29719,87.910862 c 4.70855,-14.20407 9.33758,-28.0364 14.11227,-41.81826 0.58691,-1.69408 1.95224,-3.1185 3.32089,-4.74071 4.83707,-0.0728 9.31009,-0.0728 13.88193,-0.0728 3.28714,9.86467 6.43005,19.29656 9.74506,29.03859 3.82412,11.96634 7.47619,23.62247 11.32672,35.911928 -5.3526,0 -9.11212,0 -13.02216,0 -0.45859,-1.2786 -0.94556,-2.48285 -1.32553,-3.72 -3.08621,-10.048128 -3.08014,-10.050168 -13.3201,-10.051238 -4.14242,-4.3e-4 -8.28485,-3e-5 -12.70523,-3e-5 -0.82657,2.84195 -1.60413,5.51532 -2.39813,8.586088 -0.64777,1.90213 -1.27912,3.40683 -2.01184,5.15314 -3.66873,0 -7.39972,0 -12.64487,0 1.73404,-6.200498 3.36993,-12.050048 5.04099,-18.286688 m 19.71167,-22.11139 c -1.60859,5.39234 -3.2172,10.78467 -4.85703,16.28168 5.85452,0 11.36054,0 17.35675,0 -2.8363,-9.46561 -5.52817,-18.44916 -8.65243,-28.87581 -1.54264,4.94742 -2.61277,8.37941 -3.84729,12.59413 z" id="path150" />
   <path fill="#fbfcfd" opacity="1" stroke="none" d="m 213.63798,41.345592 c 13.01567,-0.0688 25.57374,-0.0688 38.05748,-0.0688 0.9905,9.4601 0.22818,10.35129 -8.23107,10.35367 -2.97577,8.4e-4 -5.95152,1.2e-4 -9.67364,1.2e-4 0,9.14324 0,18.0248 0.11607,27.36248 0.11607,9.23639 0.11607,18.01669 0.11607,27.130178 -4.38287,0 -8.11482,0 -12.49765,0 0,-18.021018 0,-36.064688 0,-54.460178 -6.42569,0 -12.21013,0 -18.21396,0 0,-3.4553 0,-6.54581 0,-10.24859 3.32675,0 6.59793,0 10.3267,-0.0688 z" id="path152" />

   <path fill="#f6f9fc" opacity="1" stroke="none" d="m 343.32206,59.905682 c -0.11466,-6.24086 -0.11466,-12.02495 -0.11466,-18.46798 4.10816,0 7.59174,-0.3805 10.9191,0.17481 1.46784,0.24496 3.0065,2.17543 3.85214,3.70587 6.98929,12.64935 13.82352,25.38435 21.66141,38.03712 0,-7.00747 0,-14.01498 -0.1283,-21.46752 -0.12829,-6.89972 -0.12829,-13.35437 -0.12829,-20.13082 4.39938,0 8.11435,0 12.50394,0 0,18.63307 0,37.20439 0.10321,56.23454 -0.0478,2.918518 -0.1987,5.378208 -0.38895,8.478248 -3.54923,0 -7.02005,0.30984 -10.38599,-0.14945 -1.38491,-0.18899 -2.97818,-1.79263 -3.73755,-3.16251 -6.5159,-11.754908 -12.85568,-23.607328 -19.2677,-35.420008 -0.8302,-1.52945 -1.77206,-2.99829 -3.12765,-5.27801 0,15.13052 0,29.23739 0,43.677178 -3.52533,0 -7.24774,0 -11.64606,0 0,-15.275538 0,-30.525148 -0.11465,-46.231468 z" id="path156" />
   <path fill="#fbfdfe" opacity="1" stroke="none" d="m 428.63047,41.345542 c 2.9505,-0.0111 5.43677,0.0885 7.92328,0.0939 13.54821,0.0295 18.2391,4.62778 18.56125,18.58239 -0.0403,11.67422 -0.16425,22.91784 -0.24839,34.60366 -2.67718,8.792058 -8.8865,11.850588 -17.15768,11.835268 -10.14151,-0.0188 -20.28308,-0.005 -30.65176,-0.005 0,-21.770138 0,-43.203488 0,-65.043438 7.17181,0 14.1405,0 21.5733,-0.0673 m 10.63324,11.10484 c -6.68244,-0.36705 -13.36487,-0.73411 -19.95908,-1.09632 0,15.59559 0,30.1125 0,44.93266 5.55942,0 10.69187,0.0703 15.82154,-0.0192 5.47341,-0.0954 7.77059,-2.43081 7.81167,-8.0231 0.0696,-9.47302 0.20734,-18.95358 -0.12009,-28.41586 -0.0822,-2.37662 -1.82293,-4.69585 -3.55404,-7.37821 z" id="path158" />
   <path fill="#A4043C" opacity="1" stroke="none" d="m 84.594952,113.00704 c 2.744106,3.6056 5.107966,7.16382 7.568016,11.08183 -0.60995,8.6213 -4.41874,13.56668 -11.102566,14.9004 -5.8791,1.17313 -11.92741,-1.77618 -14.77135,-7.20289 -2.59683,-4.95514 -1.96327,-10.82734 1.63746,-15.17731 4.01157,-4.84629 8.97617,-5.95862 16.66844,-3.60203 m -0.15934,15.71403 c 1.361806,-3.49527 1.144796,-6.98862 -2.37861,-8.64978 -2.07273,-0.97717 -5.6303,-1.12828 -7.3218,0.0577 -1.71824,1.20488 -2.90483,4.60694 -2.66994,6.87549 0.59142,5.71142 6.93319,6.82636 12.37035,1.71647 z" id="path160" style="fill:#ffffff;stroke-width:0.959609" />
   <path fill="#f6f9fc" opacity="1" stroke="none" d="m 465.68683,102.81431 c 0.0607,-2.6651 0.21567,-4.960088 0.39234,-7.576048 3.34878,0 6.55542,0 10.02716,0 0,3.75158 0,7.320058 0,11.257018 -1.87555,0 -3.51843,0 -5.58518,0.0678 -2.63644,-0.11188 -5.38064,0.3742 -4.83432,-3.74878 z" id="path162" />
   <path fill="#fdfefe" opacity="1" stroke="none" d="m 327.63231,41.349742 c 1.94654,0.0329 3.4291,0.13527 5.3364,0.26698 0,2.30138 0,4.57092 -0.11714,7.26689 -2.36563,1.19817 -4.59445,2.55971 -6.86618,2.6355 -8.12459,0.27103 -16.26375,0.10611 -24.76251,0.10611 0,5.63251 0,10.87823 0,16.69067 7.40345,0 14.9758,0 22.80435,0 0,3.61743 0,6.68042 0,10.21857 -7.58893,0 -15.01056,0 -22.80051,0 0,6.0163 0,11.5679 0,17.6134 10.47263,0 20.89151,0 31.60945,0 0,3.55005 0,6.624508 0,10.324978 -8.93745,0 -17.87576,0 -27.278,0.0729 -5.71118,0.0729 -10.9584,0.0729 -16.80996,0.0729 0,-6.46521 0,-12.353518 -0.0866,-18.702978 -0.0867,-15.55987 -0.0867,-30.65861 -0.0867,-46.49639 13.15852,0 25.87598,0 39.0574,-0.0695 z" id="path164" />
   <path fill="#f7fafc" opacity="1" stroke="none" d="m 261.46642,44.896282 c 0.84076,-1.45415 1.7128,-3.16651 2.801,-3.31713 2.91455,-0.40342 5.92176,-0.13754 9.57373,-0.13754 0,10.25333 0,20.17293 0.10849,30.55022 0.10849,11.57144 0.10849,22.68521 0.10849,34.133878 -4.37459,0 -8.10952,0 -12.46187,0 0,-20.242188 0,-40.508878 -0.12984,-61.229428 z" id="path166" />

   <path fill="#A4043C" opacity="1" stroke="none" d="m 153.53649,120.81723 c 1.85114,8.4952 -1.21986,14.86567 -8.1405,17.49051 -6.32887,2.40039 -13.03274,0.0517 -16.57315,-5.80633 -3.78294,-6.25936 -2.20117,-13.72209 3.86629,-18.24098 5.39351,-4.01695 13.08231,-3.25117 17.77368,1.89041 1.16214,1.27371 1.98083,2.86078 3.07368,4.66639 m -13.86636,-2.07055 c -4.08138,0.87881 -6.03083,3.42123 -5.66333,7.56335 0.28796,3.24574 2.07056,5.28402 5.38407,5.78641 3.93695,0.5969 7.03961,-1.57514 7.71918,-5.37421 0.75538,-4.22273 -1.42173,-6.85008 -7.43992,-7.97555 z" id="path170" style="fill:#ffffff;stroke-width:0.959609" />





   <rect style="fill:#ffffff;stroke:none;stroke-width:1.44992" id="rect2666" width="439.89951" height="10.433819" x="161.10814" y="120.49599" ry="3.6389225" />
   <rect style="fill:#ffffff;stroke:none;stroke-width:0.400482" id="rect2964" width="33.560856" height="10.433819" x="24.354057" y="120.49599" ry="3.6389225" />
   <rect style="fill:#ffffff;stroke:none;stroke-width:0.322346" id="rect2966" width="21.742605" height="10.433819" x="97.816284" y="120.49599" ry="3.6389225" />
</svg>
